<svg width="16" height="16" viewBox="0 0 16 16" fill="none" xmlns="http://www.w3.org/2000/svg">
<path d="M13.3545 0.773682H7.84377C7.5838 0.773682 7.37305 0.984432 7.37305 1.2444V4.13049H13.8252V1.2444C13.8252 0.984432 13.6145 0.773682 13.3545 0.773682Z" fill="#0084A9"/>
<path d="M15.1213 5.07196H5.94336V13.9312H15.1213C15.6066 13.9312 16.0001 13.5377 16.0001 13.0524V5.95084C16.0001 5.46546 15.6066 5.07196 15.1213 5.07196ZM8.78845 12.8676H8.17958C7.91961 12.8676 7.70886 12.6569 7.70886 12.3969C7.70886 12.1369 7.91961 11.9262 8.17958 11.9262H8.78845C9.04842 11.9262 9.25917 12.1369 9.25917 12.3969C9.25917 12.6569 9.04842 12.8676 8.78845 12.8676ZM8.78845 11.4206H8.17958C7.91961 11.4206 7.70886 11.2099 7.70886 10.9499C7.70886 10.69 7.91961 10.4792 8.17958 10.4792H8.78845C9.04842 10.4792 9.25917 10.69 9.25917 10.9499C9.25917 11.2099 9.04842 11.4206 8.78845 11.4206ZM8.78845 9.97365H8.17958C7.91961 9.97365 7.70886 9.7629 7.70886 9.50293C7.70886 9.24296 7.91961 9.03221 8.17958 9.03221H8.78845C9.04842 9.03221 9.25917 9.24296 9.25917 9.50293C9.25917 9.7629 9.04842 9.97365 8.78845 9.97365ZM10.9038 12.8676H10.2949C10.0349 12.8676 9.82417 12.6569 9.82417 12.3969C9.82417 12.1369 10.0349 11.9262 10.2949 11.9262H10.9038C11.1637 11.9262 11.3745 12.1369 11.3745 12.3969C11.3745 12.6569 11.1637 12.8676 10.9038 12.8676ZM10.9038 11.4206H10.2949C10.0349 11.4206 9.82417 11.2099 9.82417 10.9499C9.82417 10.69 10.0349 10.4792 10.2949 10.4792H10.9038C11.1637 10.4792 11.3745 10.69 11.3745 10.9499C11.3745 11.2099 11.1637 11.4206 10.9038 11.4206ZM10.9038 9.97365H10.2949C10.0349 9.97365 9.82417 9.7629 9.82417 9.50293C9.82417 9.24296 10.0349 9.03221 10.2949 9.03221H10.9038C11.1637 9.03221 11.3745 9.24296 11.3745 9.50293C11.3745 9.7629 11.1637 9.97365 10.9038 9.97365ZM13.0191 12.8676H12.4102C12.1502 12.8676 11.9395 12.6569 11.9395 12.3969C11.9395 12.1369 12.1502 11.9262 12.4102 11.9262H13.0191C13.279 11.9262 13.4898 12.1369 13.4898 12.3969C13.4898 12.6569 13.279 12.8676 13.0191 12.8676ZM13.0191 11.4206H12.4102C12.1502 11.4206 11.9395 11.2099 11.9395 10.9499C11.9395 10.69 12.1502 10.4792 12.4102 10.4792H13.0191C13.279 10.4792 13.4898 10.69 13.4898 10.9499C13.4898 11.2099 13.279 11.4206 13.0191 11.4206ZM13.0191 9.97365H12.4102C12.1502 9.97365 11.9395 9.7629 11.9395 9.50293C11.9395 9.24296 12.1502 9.03221 12.4102 9.03221H13.0191C13.279 9.03221 13.4898 9.24296 13.4898 9.50293C13.4898 9.7629 13.279 9.97365 13.0191 9.97365ZM13.0191 7.64059H8.17958C7.91961 7.64059 7.70886 7.42984 7.70886 7.16987C7.70886 6.9099 7.91961 6.69915 8.17958 6.69915H13.0191C13.279 6.69915 13.4898 6.9099 13.4898 7.16987C13.4898 7.42984 13.279 7.64059 13.0191 7.64059Z" fill="#0084A9"/>
<path d="M4.53104 3.77692H2.29103C2.03147 3.77692 1.82031 3.98807 1.82031 4.24764V14.7556C1.82031 15.0151 2.03147 15.2263 2.29103 15.2263H4.53101C4.79057 15.2263 5.00173 15.0151 5.00173 14.7556V4.24764H5.00176C5.00176 3.98807 4.7906 3.77692 4.53104 3.77692Z" fill="#0084A9"/>
<path d="M0 5.95084V13.0524C0 13.5377 0.3935 13.9312 0.878875 13.9312V5.07196C0.3935 5.07196 0 5.46546 0 5.95084Z" fill="#0084A9"/>
</svg>
