<svg width="24" height="25" viewBox="0 0 24 25" fill="none" xmlns="http://www.w3.org/2000/svg">
<path d="M14.1867 10.7944C13.1596 10.7944 12.7009 11.359 12.4442 11.7554V10.9317H10.5098C10.5349 11.4769 10.5098 16.7519 10.5098 16.7519H12.4442V13.5003C12.4442 13.3268 12.4553 13.1523 12.5075 13.0281C12.6477 12.68 12.9657 12.3199 13.5003 12.3199C14.2003 12.3199 14.4801 12.8536 14.4801 13.6366V16.7505H16.4146H16.415V13.4128C16.4141 11.6263 15.4594 10.7944 14.1867 10.7944ZM12.4427 11.7757H12.4307C12.4345 11.7689 12.4403 11.7626 12.4427 11.7558V11.7757Z" fill="white"/>
<path d="M7.50391 10.9316H9.43833V16.7518H7.50391V10.9316Z" fill="white"/>
<path d="M12 0.5C5.38323 0.5 0 5.8832 0 12.4999C0 19.1162 5.38323 24.4999 12 24.4999C18.6163 24.4999 24 19.1162 24 12.4999C24 5.8832 18.6173 0.5 12 0.5ZM18.3635 17.9276C18.3635 18.438 17.9401 18.8508 17.4166 18.8508H6.50173C5.9797 18.8508 5.55579 18.438 5.55579 17.9276V6.88569C5.55579 6.37575 5.9797 5.96247 6.50173 5.96247H17.4166C17.9396 5.96247 18.3635 6.37623 18.3635 6.88569V17.9276Z" fill="white"/>
<path d="M8.48399 8.12598C7.82274 8.12598 7.38965 8.56004 7.38965 9.13138C7.38965 9.68966 7.80969 10.1368 8.45837 10.1368H8.47094C9.14572 10.1368 9.56576 9.68966 9.56576 9.13138C9.55271 8.56052 9.1462 8.12598 8.48399 8.12598Z" fill="white"/>
</svg>
