<svg width="15" height="19" viewBox="0 0 15 19" fill="none" xmlns="http://www.w3.org/2000/svg">
<path d="M12.2359 2.20471C11.3734 1.49844 10.3648 0.992414 9.28302 0.723114C8.20121 0.453813 7.07313 0.427956 5.98012 0.647406C4.57475 0.935536 3.28182 1.62157 2.25535 2.6238C1.22888 3.62602 0.512132 4.90218 0.190494 6.30027C-0.131143 7.69835 -0.044117 9.15943 0.441207 10.5094C0.92653 11.8595 1.78969 13.0415 2.92788 13.9148C4.22737 14.8659 5.33379 16.0559 6.18798 17.421L6.77 18.3888C6.84391 18.5118 6.94838 18.6135 7.07324 18.6841C7.1981 18.7547 7.3391 18.7918 7.48255 18.7918C7.62599 18.7918 7.76699 18.7547 7.89185 18.6841C8.01671 18.6135 8.12118 18.5118 8.1951 18.3888L8.753 17.4593C9.49683 16.1517 10.511 15.0179 11.7279 14.1335C12.6821 13.477 13.4707 12.6078 14.0314 11.5944C14.5921 10.5809 14.9097 9.4511 14.959 8.29395C15.0084 7.13681 14.7881 5.98403 14.3157 4.92656C13.8433 3.8691 13.1316 2.93588 12.2368 2.20055L12.2359 2.20471ZM7.48172 11.3099C6.82394 11.3099 6.18093 11.1148 5.63401 10.7494C5.08708 10.384 4.66081 9.86454 4.40908 9.25683C4.15736 8.64912 4.0915 7.98041 4.21983 7.33527C4.34815 6.69013 4.66491 6.09753 5.13003 5.63241C5.59515 5.16729 6.18775 4.85054 6.83289 4.72221C7.47803 4.59389 8.14673 4.65975 8.75444 4.91147C9.36215 5.16319 9.88157 5.58947 10.247 6.13639C10.6125 6.68331 10.8075 7.32632 10.8075 7.9841C10.8075 8.86616 10.4571 9.71208 9.8334 10.3358C9.2097 10.9595 8.36377 11.3099 7.48172 11.3099Z" fill="white"/>
</svg>
