<svg width="80" height="80" viewBox="0 0 80 80" fill="none" xmlns="http://www.w3.org/2000/svg">
<path d="M53.1947 38.4354L36.5829 26.36C35.9733 25.9181 35.164 25.8515 34.4958 26.1949C33.8223 26.5357 33.4017 27.2278 33.4017 27.9759V52.1189C33.4017 52.8749 33.8223 53.5644 34.4958 53.9052C34.7807 54.0489 35.0921 54.1208 35.4063 54.1208C35.8162 54.1208 36.2315 53.9903 36.5829 53.7321L53.1947 41.6673C53.7191 41.2813 54.0253 40.685 54.0253 40.0514C54.0279 39.4071 53.7138 38.8135 53.1947 38.4354Z" fill="white"/>
<path d="M40.0013 0.00537109C17.9056 0.00537109 0 17.9109 0 40.0067C0 62.0945 17.9056 79.9947 40.0013 79.9947C62.0918 79.9947 80 62.0918 80 40.0067C80.0027 17.9109 62.0918 0.00537109 40.0013 0.00537109ZM40.0013 73.3207C21.6006 73.3207 6.68197 58.4101 6.68197 40.0067C6.68197 21.6113 21.6006 6.68202 40.0013 6.68202C58.3994 6.68202 73.3154 21.6086 73.3154 40.0067C73.318 58.4101 58.3994 73.3207 40.0013 73.3207Z" fill="white"/>
</svg>
