<svg width="93" height="93" viewBox="0 0 93 93" fill="none" xmlns="http://www.w3.org/2000/svg">
<g clip-path="url(#clip0_14071_1402)">
<path d="M88.8346 46.3018C100.787 26.2142 85.5161 -0.276849 62.1096 0.0188106C44.9697 0.0064687 31.0434 14.1007 31.2577 31.2388C7.6966 30.66 -7.86828 57.2999 4.16774 77.5196C3.3971 80.3916 2.62683 83.2635 1.85601 86.1404C1.4745 87.5715 1.87651 89.0465 2.93138 90.086C3.97154 91.1111 5.48487 91.5048 6.88367 91.1149C9.74335 90.3486 12.6025 89.5816 15.462 88.8144C35.6895 100.853 62.3216 85.2854 61.7446 61.7257C67.2988 61.7923 72.7605 60.3625 77.5404 57.5964C80.3993 58.3634 83.2579 59.1303 86.1171 59.8964C87.5168 60.2871 89.0307 59.8933 90.071 58.8678C91.1259 57.8284 91.5277 56.3534 91.1457 54.9201C90.3756 52.0455 89.6053 49.1739 88.8346 46.3018ZM87.523 56.2828C87.4563 56.3575 87.2721 56.4657 87.0679 56.3935C83.9589 55.5602 80.8498 54.7262 77.7408 53.8919C77.2593 53.763 76.7463 53.8373 76.3215 54.0977C71.8815 56.8209 66.7458 58.2104 61.4896 58.0908C61.259 56.3098 60.8738 54.5551 60.3364 52.8428C59.5282 50.5719 56.236 51.6152 56.8731 53.9296C62.5109 71.0347 48.9527 89.6105 30.892 89.3155C25.862 89.3159 20.9476 87.9325 16.6809 85.3157C16.256 85.0551 15.7433 84.9808 15.2616 85.1099C12.1526 85.944 9.0435 86.7782 5.93444 87.6114C5.54259 87.7242 5.28649 87.3878 5.36291 87.0777C6.19925 83.9565 7.03577 80.8385 7.87229 77.7204C8.00152 77.239 7.92711 76.7259 7.66647 76.3011C-3.494 58.6008 9.93756 34.597 30.8926 34.8669C33.7698 34.8667 36.603 35.313 39.3128 36.1935C40.2658 36.5031 41.29 35.9815 41.5998 35.0281C41.9095 34.0749 41.3879 33.0509 40.4344 32.741C38.6287 32.1544 36.7753 31.7377 34.8924 31.494C34.5272 16.2721 46.8816 3.62808 62.11 3.64877C83.065 3.38215 96.4975 27.3823 85.3352 45.0834C85.0751 45.508 85.0007 46.0212 85.1297 46.5026C85.9662 49.6207 86.8029 52.7388 87.6384 55.8575C87.6823 56.0209 87.6435 56.1641 87.523 56.2828Z" fill="#0084A9"/>
<path fill-rule="evenodd" clip-rule="evenodd" d="M51.8556 19.439C55.4641 19.439 58.3895 22.3643 58.3895 25.9729V34.9572C58.3895 39.0001 55.0817 42.3079 51.0388 42.3079V32.4562C43.0139 31.2361 43.6898 19.6677 51.8556 19.439Z" fill="#0084A9"/>
<path fill-rule="evenodd" clip-rule="evenodd" d="M72.3648 19.439C75.9734 19.439 78.8988 22.3643 78.8988 25.9729V34.9572C78.8988 39.0001 75.591 42.3079 71.5481 42.3079V32.4562C63.5232 31.2361 64.1991 19.6677 72.3648 19.439Z" fill="#0084A9"/>
<path fill-rule="evenodd" clip-rule="evenodd" d="M41.1468 50.657C37.5383 50.657 34.6129 53.5824 34.6129 57.1909V66.1752C34.6129 70.2181 37.9207 73.5259 41.9636 73.5259V63.6742C49.9885 62.4541 49.3126 50.8857 41.1468 50.657Z" fill="#0084A9"/>
<path fill-rule="evenodd" clip-rule="evenodd" d="M20.6376 50.657C17.029 50.657 14.1036 53.5824 14.1036 57.1909V66.1752C14.1036 70.2181 17.4114 73.5259 21.4543 73.5259V63.6742C29.4792 62.4541 28.8033 50.8857 20.6376 50.657Z" fill="#0084A9"/>
</g>
<defs>
<clipPath id="clip0_14071_1402">
<rect width="93" height="93" fill="white"/>
</clipPath>
</defs>
</svg>
