<svg width="12" height="16" viewBox="0 0 12 16" fill="none" xmlns="http://www.w3.org/2000/svg">
<path d="M10.5953 0.447934V0.446281C10.3113 0.160785 9.92531 0.000165289 9.52262 0H2.47634C1.63944 0.00272727 0.961712 0.680455 0.958984 1.51736V14.481C0.95915 14.8837 1.11977 15.2697 1.40527 15.5537C1.68886 15.8388 2.07423 15.9994 2.47634 16H9.52427C9.92638 15.9994 10.3118 15.8388 10.5953 15.5537C10.8804 15.2701 11.041 14.8848 11.0416 14.4826V1.51901C11.041 1.1169 10.8804 0.731529 10.5953 0.447934ZM6.00031 14.9702C5.7739 14.9702 5.59039 14.7867 5.59039 14.5603C5.59039 14.3339 5.7739 14.1504 6.00031 14.1504C6.22671 14.1504 6.41022 14.3339 6.41022 14.5603C6.41022 14.7867 6.22671 14.9702 6.00031 14.9702ZM9.83667 12.3967C9.83667 12.9444 9.39266 13.3884 8.84493 13.3884H3.15403C2.6063 13.3884 2.16229 12.9444 2.16229 12.3967V2.73554C2.16229 2.18781 2.6063 1.7438 3.15403 1.7438H8.84659C9.39431 1.7438 9.83832 2.18781 9.83832 2.73554L9.83667 12.3967Z" fill="#0084A9"/>
</svg>
