<svg width="10" height="17" viewBox="0 0 10 17" fill="none" xmlns="http://www.w3.org/2000/svg">
<path d="M7.65039 0.5H2.32675C1.38725 0.501065 0.625932 1.26238 0.625 2.20188V14.7982C0.625932 15.7377 1.38725 16.499 2.32675 16.5H7.65039C8.58989 16.499 9.35121 15.7377 9.35227 14.7982V2.20188C9.35121 1.26238 8.58989 0.501065 7.65039 0.5V0.5ZM4.98864 15.0455C4.58687 15.0455 4.26127 14.7199 4.26127 14.3181C4.26127 13.9165 4.58687 13.5909 4.98864 13.5909C5.39027 13.5909 5.71586 13.9165 5.71586 14.3181C5.71586 14.7199 5.39027 15.0455 4.98864 15.0455ZM6.07955 2.68182H3.89773C3.69691 2.68182 3.53405 2.51895 3.53405 2.31814C3.53405 2.11732 3.69691 1.95459 3.89773 1.95459H6.07955C6.28036 1.95459 6.44309 2.11732 6.44309 2.31814C6.44309 2.51895 6.28036 2.68182 6.07955 2.68182Z" fill="white"/>
</svg>
