<svg width="24" height="24" viewBox="0 0 24 24" fill="none" xmlns="http://www.w3.org/2000/svg">
<path d="M20.4152 3.6301C19.5944 2.53109 18.3801 1.79235 17.0268 1.56866C15.6735 1.34497 14.2861 1.65367 13.1552 2.4301L4.72525 8.1976C3.09317 9.29957 1.9657 11.0048 1.59086 12.938C1.21602 14.8713 1.62452 16.8743 2.7265 18.5063C3.82847 20.1384 5.53365 21.2659 7.46692 21.6407C9.40018 22.0156 11.4032 21.6071 13.0352 20.5051L18.5252 16.8451C18.6913 16.7347 18.8068 16.5628 18.8462 16.3673C18.8855 16.1718 18.8456 15.9687 18.7352 15.8026C18.6248 15.6365 18.453 15.5211 18.2575 15.4817C18.062 15.4423 17.8588 15.4822 17.6927 15.5926L12.2027 19.2526C10.9005 20.0869 9.32365 20.3789 7.809 20.0663C6.29436 19.7537 4.96197 18.8612 4.09642 17.5795C3.23088 16.2979 2.90077 14.7286 3.17662 13.2068C3.45247 11.685 4.3124 10.3314 5.57275 9.4351L14.0027 3.6676C14.4174 3.37042 14.8873 3.15935 15.3849 3.04686C15.8824 2.93436 16.3975 2.92273 16.8996 3.01264C17.4017 3.10255 17.8807 3.29218 18.3083 3.57032C18.7359 3.84847 19.1034 4.2095 19.3892 4.63207C19.6749 5.05465 19.873 5.5302 19.9719 6.03064C20.0707 6.53108 20.0683 7.04626 19.9647 7.54573C19.8611 8.04521 19.6584 8.51885 19.3687 8.93869C19.0789 9.35852 18.708 9.71603 18.2777 9.9901L10.2977 15.3076C10.1315 15.4513 9.93651 15.5579 9.72579 15.6203C9.51507 15.6827 9.29346 15.6994 9.07576 15.6693C8.85807 15.6392 8.6493 15.5631 8.46339 15.4459C8.27748 15.3287 8.11871 15.1732 7.99767 14.9898C7.87664 14.8063 7.79613 14.5992 7.76153 14.3822C7.72692 14.1652 7.73901 13.9432 7.79699 13.7313C7.85496 13.5193 7.9575 13.3221 8.09774 13.1529C8.23798 12.9837 8.4127 12.8464 8.61025 12.7501L13.0352 9.4951C13.117 9.4365 13.1864 9.36237 13.2395 9.27694C13.2926 9.19152 13.3284 9.09647 13.3447 8.99723C13.3611 8.89798 13.3577 8.79649 13.3349 8.69854C13.312 8.60059 13.2701 8.5081 13.2115 8.42635C13.1529 8.3446 13.0788 8.2752 12.9933 8.2221C12.9079 8.169 12.8129 8.13324 12.7136 8.11688C12.6144 8.10051 12.5129 8.10385 12.4149 8.12671C12.317 8.14957 12.2245 8.1915 12.1427 8.2501L7.75525 11.4826C7.41067 11.7128 7.11657 12.0107 6.89087 12.3582C6.66516 12.7057 6.51257 13.0956 6.4424 13.504C6.37223 13.9124 6.38594 14.3308 6.48271 14.7337C6.57947 15.1366 6.75727 15.5156 7.00525 15.8476C7.47361 16.4685 8.1613 16.8872 8.92792 17.0182C9.69454 17.1492 10.4823 16.9827 11.1302 16.5526L19.1102 11.2501C19.7119 10.8483 20.2253 10.3281 20.6192 9.72132C21.0131 9.11452 21.2793 8.43381 21.4014 7.72073C21.5235 7.00766 21.4991 6.27718 21.3295 5.57388C21.16 4.87057 20.8489 4.20919 20.4152 3.6301Z" fill="white"/>
</svg>
